<svg xmlns="http://www.w3.org/2000/svg"  viewBox="0 0 128 128" width="100px" height="100px"><path fill="#fff" d="M114,4H24c-5.5,0-10,4.5-10,10v27.6c0,18.9-2.3,37.7-6.9,56l-0.6,2.5c-1.3,5,2.6,9.9,7.8,9.9H24v14h90 c5.5,0,10-4.5,10-10V14C124,8.5,119.5,4,114,4z"/><path fill="#fff" d="M24,4c-5.5,0-10,4.5-10,10v27.6c0,18.9-2.3,37.7-6.9,56l-0.6,2.5c-1.3,5,2.6,9.9,7.8,9.9h0H80h10.6 c5.5,0,10.3-3.7,11.6-9.1l0.8-3.3c4.6-18.3,6.9-37.1,6.9-56V27v-6c0-3.9,3.1-7,7-7h0c3.9,0,7,3.1,7,7v-4V4H24z"/><path fill="#71c2ff" d="M60.7,77.4c-4.4,0-7.4-3.8-10.1-7.1c-1.3-1.7-3.3-4.1-4.5-4.4c-0.8,0.7-2.2,2.7-3.4,4.4c-0.9,1.2-1.9,2.6-3,4 c-1,1.3-2.9,1.5-4.2,0.5c-1.3-1-1.5-2.9-0.5-4.2c1-1.3,2-2.7,2.9-3.9c3.1-4.2,4.7-6.5,7.2-6.8c4.5-0.6,7.5,3.2,10.2,6.6 c1.8,2.2,4.1,5,5.6,4.9c1.1-0.1,2.5-1.5,3.9-2.8c2.2-2.1,5-4.8,8.9-4.4c1.1,0.1,2.2,0.4,3.3,1c1.5,0.7,2.1,2.5,1.4,4 c-0.7,1.5-2.5,2.1-4,1.4c-0.5-0.2-0.9-0.4-1.2-0.4c-1.1-0.1-2.6,1.3-4.1,2.8c-2,1.9-4.2,4.1-7.4,4.4C61.3,77.4,61,77.4,60.7,77.4z M46.4,65.7L46.4,65.7z"/><circle cx="86" cy="74" r="3" fill="#71c2ff"/><path fill="#444b54" d="M114,127H24c-1.7,0-3-1.3-3-3s1.3-3,3-3h90c3.9,0,7-3.1,7-7V14c0-3.9-3.1-7-7-7H24c-3.9,0-7,3.1-7,7v27.6 c0,19.1-2.3,38.2-7,56.7l-0.6,2.5c-0.4,1.5,0,3.1,0.9,4.3s2.4,1.9,3.9,1.9h76.4c4.1,0,7.7-2.8,8.7-6.8l0.8-3.3 c4.5-18.1,6.8-36.7,6.8-55.3V17c0-1.7,1.3-3,3-3s3,1.3,3,3v24.6c0,19.1-2.3,38.2-7,56.7l-0.8,3.3c-1.7,6.7-7.7,11.4-14.6,11.4 H14.2c-3.4,0-6.6-1.5-8.7-4.2s-2.8-6.1-2-9.4l0.6-2.5C8.7,78.8,11,60.2,11,41.6V14c0-7.2,5.8-13,13-13h90c7.2,0,13,5.8,13,13v100 C127,121.2,121.2,127,114,127z"/></svg>